<svg xmlns="http://www.w3.org/2000/svg" viewBox="0 0 800 500" role="img" aria-label="demo art">
  <defs>
    <linearGradient id="g2" x1="0" y1="0" x2="1" y2="1">
      <stop offset="0%" stop-color="#0a0a0c"/>
      <stop offset="100%" stop-color="#17171d"/>
    </linearGradient>
  </defs>
  <rect width="800" height="500" fill="url(#g2)"/>
  <g fill="none" stroke="#c7b3ff" stroke-width="1.5">
    <path d="M0 250 Q100 180 200 250 T400 250 T600 250 T800 250" stroke-opacity="0.9"/>
    <path d="M0 280 Q100 220 200 280 T400 280 T600 280 T800 280" stroke-opacity="0.6"/>
    <path d="M0 310 Q100 260 200 310 T400 310 T600 310 T800 310" stroke-opacity="0.35"/>
    <path d="M0 220 Q100 150 200 220 T400 220 T600 220 T800 220" stroke-opacity="0.6"/>
    <path d="M0 190 Q100 120 200 190 T400 190 T600 190 T800 190" stroke-opacity="0.35"/>
  </g>
  <g fill="#c7b3ff">
    <rect x="100" y="80" width="4" height="4"/>
    <rect x="220" y="60" width="4" height="4"/>
    <rect x="340" y="90" width="4" height="4"/>
    <rect x="480" y="50" width="4" height="4"/>
    <rect x="600" y="80" width="4" height="4"/>
    <rect x="720" y="70" width="4" height="4"/>
  </g>
  <text x="40" y="460" font-family="ui-monospace, monospace" font-size="14" fill="#c7b3ff" fill-opacity="0.6">// DEMO.002</text>
</svg>
